<!-- <svg xmlns="http://www.w3.org/2000/svg" width="48" height="46" fill="none" viewBox="0 0 48 46"><path fill="#863bff" d="M25.946 44.938c-.664.845-2.021.375-2.021-.698V33.937a2.26 2.26 0 0 0-2.262-2.262H10.287c-.92 0-1.456-1.04-.92-1.788l7.48-10.471c1.07-1.497 0-3.578-1.842-3.578H1.237c-.92 0-1.456-1.04-.92-1.788L10.013.474c.214-.297.556-.474.92-.474h28.894c.92 0 1.456 1.04.92 1.788l-7.48 10.471c-1.07 1.498 0 3.579 1.842 3.579h11.377c.943 0 1.473 1.088.89 1.83L25.947 44.94z" style="fill:#863bff;fill:color(display-p3 .5252 .23 1);fill-opacity:1"/><mask id="a" width="48" height="46" x="0" y="0" maskUnits="userSpaceOnUse" style="mask-type:alpha"><path fill="#000" d="M25.842 44.938c-.664.844-2.021.375-2.021-.698V33.937a2.26 2.26 0 0 0-2.262-2.262H10.183c-.92 0-1.456-1.04-.92-1.788l7.48-10.471c1.07-1.498 0-3.579-1.842-3.579H1.133c-.92 0-1.456-1.04-.92-1.787L9.91.473c.214-.297.556-.474.92-.474h28.894c.92 0 1.456 1.04.92 1.788l-7.48 10.471c-1.07 1.498 0 3.578 1.842 3.578h11.377c.943 0 1.473 1.088.89 1.832L25.843 44.94z" style="fill:#000;fill-opacity:1"/></mask><g mask="url(#a)"><g filter="url(#b)"><ellipse cx="5.508" cy="14.704" fill="#ede6ff" rx="5.508" ry="14.704" style="fill:#ede6ff;fill:color(display-p3 .9275 .9033 1);fill-opacity:1" transform="matrix(.00324 1 1 -.00324 -4.47 31.516)"/></g><g filter="url(#c)"><ellipse cx="10.399" cy="29.851" fill="#ede6ff" rx="10.399" ry="29.851" style="fill:#ede6ff;fill:color(display-p3 .9275 .9033 1);fill-opacity:1" transform="matrix(.00324 1 1 -.00324 -39.328 7.883)"/></g><g filter="url(#d)"><ellipse cx="5.508" cy="30.487" fill="#7e14ff" rx="5.508" ry="30.487" style="fill:#7e14ff;fill:color(display-p3 .4922 .0767 1);fill-opacity:1" transform="rotate(89.814 -25.913 -14.639)scale(1 -1)"/></g><g filter="url(#e)"><ellipse cx="5.508" cy="30.599" fill="#7e14ff" rx="5.508" ry="30.599" style="fill:#7e14ff;fill:color(display-p3 .4922 .0767 1);fill-opacity:1" transform="rotate(89.814 -32.644 -3.334)scale(1 -1)"/></g><g filter="url(#f)"><ellipse cx="5.508" cy="30.599" fill="#7e14ff" rx="5.508" ry="30.599" style="fill:#7e14ff;fill:color(display-p3 .4922 .0767 1);fill-opacity:1" transform="matrix(.00324 1 1 -.00324 -34.34 30.47)"/></g><g filter="url(#g)"><ellipse cx="14.072" cy="22.078" fill="#ede6ff" rx="14.072" ry="22.078" style="fill:#ede6ff;fill:color(display-p3 .9275 .9033 1);fill-opacity:1" transform="rotate(93.35 24.506 48.493)scale(-1 1)"/></g><g filter="url(#h)"><ellipse cx="3.47" cy="21.501" fill="#7e14ff" rx="3.47" ry="21.501" style="fill:#7e14ff;fill:color(display-p3 .4922 .0767 1);fill-opacity:1" transform="rotate(89.009 28.708 47.59)scale(-1 1)"/></g><g filter="url(#i)"><ellipse cx="3.47" cy="21.501" fill="#7e14ff" rx="3.47" ry="21.501" style="fill:#7e14ff;fill:color(display-p3 .4922 .0767 1);fill-opacity:1" transform="rotate(89.009 28.708 47.59)scale(-1 1)"/></g><g filter="url(#j)"><ellipse cx=".387" cy="8.972" fill="#7e14ff" rx="4.407" ry="29.108" style="fill:#7e14ff;fill:color(display-p3 .4922 .0767 1);fill-opacity:1" transform="rotate(39.51 .387 8.972)"/></g><g filter="url(#k)"><ellipse cx="47.523" cy="-6.092" fill="#7e14ff" rx="4.407" ry="29.108" style="fill:#7e14ff;fill:color(display-p3 .4922 .0767 1);fill-opacity:1" transform="rotate(37.892 47.523 -6.092)"/></g><g filter="url(#l)"><ellipse cx="41.412" cy="6.333" fill="#47bfff" rx="5.971" ry="9.665" style="fill:#47bfff;fill:color(display-p3 .2799 .748 1);fill-opacity:1" transform="rotate(37.892 41.412 6.333)"/></g><g filter="url(#m)"><ellipse cx="-1.879" cy="38.332" fill="#7e14ff" rx="4.407" ry="29.108" style="fill:#7e14ff;fill:color(display-p3 .4922 .0767 1);fill-opacity:1" transform="rotate(37.892 -1.88 38.332)"/></g><g filter="url(#n)"><ellipse cx="-1.879" cy="38.332" fill="#7e14ff" rx="4.407" ry="29.108" style="fill:#7e14ff;fill:color(display-p3 .4922 .0767 1);fill-opacity:1" transform="rotate(37.892 -1.88 38.332)"/></g><g filter="url(#o)"><ellipse cx="35.651" cy="29.907" fill="#7e14ff" rx="4.407" ry="29.108" style="fill:#7e14ff;fill:color(display-p3 .4922 .0767 1);fill-opacity:1" transform="rotate(37.892 35.651 29.907)"/></g><g filter="url(#p)"><ellipse cx="38.418" cy="32.4" fill="#47bfff" rx="5.971" ry="15.297" style="fill:#47bfff;fill:color(display-p3 .2799 .748 1);fill-opacity:1" transform="rotate(37.892 38.418 32.4)"/></g></g><defs><filter id="b" width="60.045" height="41.654" x="-19.77" y="16.149" color-interpolation-filters="sRGB" filterUnits="userSpaceOnUse"><feFlood flood-opacity="0" result="BackgroundImageFix"/><feBlend in="SourceGraphic" in2="BackgroundImageFix" result="shape"/><feGaussianBlur result="effect1_foregroundBlur_2002_17158" stdDeviation="7.659"/></filter><filter id="c" width="90.34" height="51.437" x="-54.613" y="-7.533" color-interpolation-filters="sRGB" filterUnits="userSpaceOnUse"><feFlood flood-opacity="0" result="BackgroundImageFix"/><feBlend in="SourceGraphic" in2="BackgroundImageFix" result="shape"/><feGaussianBlur result="effect1_foregroundBlur_2002_17158" stdDeviation="7.659"/></filter><filter id="d" width="79.355" height="29.4" x="-49.64" y="2.03" color-interpolation-filters="sRGB" filterUnits="userSpaceOnUse"><feFlood flood-opacity="0" result="BackgroundImageFix"/><feBlend in="SourceGraphic" in2="BackgroundImageFix" result="shape"/><feGaussianBlur result="effect1_foregroundBlur_2002_17158" stdDeviation="4.596"/></filter><filter id="e" width="79.579" height="29.4" x="-45.045" y="20.029" color-interpolation-filters="sRGB" filterUnits="userSpaceOnUse"><feFlood flood-opacity="0" result="BackgroundImageFix"/><feBlend in="SourceGraphic" in2="BackgroundImageFix" result="shape"/><feGaussianBlur result="effect1_foregroundBlur_2002_17158" stdDeviation="4.596"/></filter><filter id="f" width="79.579" height="29.4" x="-43.513" y="21.178" color-interpolation-filters="sRGB" filterUnits="userSpaceOnUse"><feFlood flood-opacity="0" result="BackgroundImageFix"/><feBlend in="SourceGraphic" in2="BackgroundImageFix" result="shape"/><feGaussianBlur result="effect1_foregroundBlur_2002_17158" stdDeviation="4.596"/></filter><filter id="g" width="74.749" height="58.852" x="15.756" y="-17.901" color-interpolation-filters="sRGB" filterUnits="userSpaceOnUse"><feFlood flood-opacity="0" result="BackgroundImageFix"/><feBlend in="SourceGraphic" in2="BackgroundImageFix" result="shape"/><feGaussianBlur result="effect1_foregroundBlur_2002_17158" stdDeviation="7.659"/></filter><filter id="h" width="61.377" height="25.362" x="23.548" y="2.284" color-interpolation-filters="sRGB" filterUnits="userSpaceOnUse"><feFlood flood-opacity="0" result="BackgroundImageFix"/><feBlend in="SourceGraphic" in2="BackgroundImageFix" result="shape"/><feGaussianBlur result="effect1_foregroundBlur_2002_17158" stdDeviation="4.596"/></filter><filter id="i" width="61.377" height="25.362" x="23.548" y="2.284" color-interpolation-filters="sRGB" filterUnits="userSpaceOnUse"><feFlood flood-opacity="0" result="BackgroundImageFix"/><feBlend in="SourceGraphic" in2="BackgroundImageFix" result="shape"/><feGaussianBlur result="effect1_foregroundBlur_2002_17158" stdDeviation="4.596"/></filter><filter id="j" width="56.045" height="63.649" x="-27.636" y="-22.853" color-interpolation-filters="sRGB" filterUnits="userSpaceOnUse"><feFlood flood-opacity="0" result="BackgroundImageFix"/><feBlend in="SourceGraphic" in2="BackgroundImageFix" result="shape"/><feGaussianBlur result="effect1_foregroundBlur_2002_17158" stdDeviation="4.596"/></filter><filter id="k" width="54.814" height="64.646" x="20.116" y="-38.415" color-interpolation-filters="sRGB" filterUnits="userSpaceOnUse"><feFlood flood-opacity="0" result="BackgroundImageFix"/><feBlend in="SourceGraphic" in2="BackgroundImageFix" result="shape"/><feGaussianBlur result="effect1_foregroundBlur_2002_17158" stdDeviation="4.596"/></filter><filter id="l" width="33.541" height="35.313" x="24.641" y="-11.323" color-interpolation-filters="sRGB" filterUnits="userSpaceOnUse"><feFlood flood-opacity="0" result="BackgroundImageFix"/><feBlend in="SourceGraphic" in2="BackgroundImageFix" result="shape"/><feGaussianBlur result="effect1_foregroundBlur_2002_17158" stdDeviation="4.596"/></filter><filter id="m" width="54.814" height="64.646" x="-29.286" y="6.009" color-interpolation-filters="sRGB" filterUnits="userSpaceOnUse"><feFlood flood-opacity="0" result="BackgroundImageFix"/><feBlend in="SourceGraphic" in2="BackgroundImageFix" result="shape"/><feGaussianBlur result="effect1_foregroundBlur_2002_17158" stdDeviation="4.596"/></filter><filter id="n" width="54.814" height="64.646" x="-29.286" y="6.009" color-interpolation-filters="sRGB" filterUnits="userSpaceOnUse"><feFlood flood-opacity="0" result="BackgroundImageFix"/><feBlend in="SourceGraphic" in2="BackgroundImageFix" result="shape"/><feGaussianBlur result="effect1_foregroundBlur_2002_17158" stdDeviation="4.596"/></filter><filter id="o" width="54.814" height="64.646" x="8.244" y="-2.416" color-interpolation-filters="sRGB" filterUnits="userSpaceOnUse"><feFlood flood-opacity="0" result="BackgroundImageFix"/><feBlend in="SourceGraphic" in2="BackgroundImageFix" result="shape"/><feGaussianBlur result="effect1_foregroundBlur_2002_17158" stdDeviation="4.596"/></filter><filter id="p" width="39.409" height="43.623" x="18.713" y="10.588" color-interpolation-filters="sRGB" filterUnits="userSpaceOnUse"><feFlood flood-opacity="0" result="BackgroundImageFix"/><feBlend in="SourceGraphic" in2="BackgroundImageFix" result="shape"/><feGaussianBlur result="effect1_foregroundBlur_2002_17158" stdDeviation="4.596"/></filter></defs></svg> -->

<svg width="800px" height="800px" viewBox="0 0 128 128" xmlns="http://www.w3.org/2000/svg" xmlns:xlink="http://www.w3.org/1999/xlink" aria-hidden="true" role="img" class="iconify iconify--noto" preserveAspectRatio="xMidYMid meet"><path d="M66.65 45.55l5.25-6.89s1.05-1.62 2.04-1.51c.98.11 2.58 3.23 6.52 2.92c4.16-.33 8.08-1.41 8.08-1.41l3.28 4.6l-.56 3.02s-1.24 3.72-.54 6.19c.61 2.17 2.74 3.53 2.77 4.52c.05 1.31-63.05 63.62-63.71 64.06s-7.22-.44-7.88-.77s-11.38-12.58-11.38-12.58s-.45-5.4.1-6.38c.07-.12.47-.52.79-.77c4.56-3.55 21.78-10.45 35-23.48c5.69-5.62 20.24-31.52 20.24-31.52z" fill="#d06f1d"></path><path d="M111.76 16.54v-4.66s2.07-4.34 2.57-4.98s4.57-1.43 7.43 1.64c2.86 3.07 2.34 6.06 2.07 6.5c-.31.5-5.47 3.67-5.47 3.67l-6.6-2.17z" fill="#af570c"></path><path d="M71.91 38.65c.41-.2 2.89 3.58 5.88 3.73c2.99.15 7.98-.15 7.98-.15l2.53 3.91l-.15 2.68s-.61 2.91 0 4.75s1.69 2.76 1.84 3.45c.15.69-59.59 60.88-60.12 61.04c-.54.15-6.82.08-7.28-.3s-9.17-10.17-9.55-10.86c-.38-.69-1.8-5.47-1.64-6.32c.13-.83 59.99-61.67 60.51-61.93z" fill="#eb8b34"></path><path d="M84.17 39.46c0-.23 27.13-27.06 27.13-27.06l6.6 6.9l-26.96 27.45s-8.4 1.39-8.32 1.01c.08-.39 1.55-8.3 1.55-8.3z" fill="#474c4f"></path><path fill="#e0e0e0" d="M98.9 24.69l3.13-3.12l6.9 6.87l-3.21 3.27z"></path><path d="M104.97 18.67l6.81 6.85l6.98-7.03s-6.72-7.01-6.91-6.81c-.16.16-6.88 6.99-6.88 6.99z" fill="#e0e0e0"></path><path d="M56.39 73.69c.59.64 2.28-.77 3.46-1.69c.49-.38 8.97-7.14 16.61-13.61s14.72-11.43 14.77-12.02s-6.41-6.87-7.06-6.91c-.66-.04-6.28 6.34-12.24 13.62c-6.63 8.1-13.49 16.57-13.72 16.86c-1.18 1.56-2.28 3.25-1.82 3.75z" fill="#af570c"></path><path d="M8.77 32.14c-5.74 5.11-7.2 15.21-.6 21.98c5.59 5.74 14.73 6.42 21.38.08c6.07-5.8 4.53-16.16.91-20.39c-5.31-6.2-15.5-7.19-21.69-1.67z" fill="#a52415"></path><path d="M16.73 30.68c-1.77-.21-6.56.86-8.77 6.12c-2.01 4.79-.71 8.27.27 8.54c1.61.45 2.9-6.08 6.46-8.43s5.75-.82 6.24-2.14c.35-.92-.53-3.65-4.2-4.09z" fill="#d26051"></path><path d="M6.46 52.03c.38-.13 8.91-3.75 13.68-7.42c7.26-5.59 9.44-11.7 9.44-11.7s1.36 1.06 2.35 3.05c.71 1.44 1.31 3.73 1.27 3.97c-.08.51-5.27 6.14-10.52 10.19S11.04 56.5 11.04 56.5s-1.96-1.43-2.89-2.38c-.99-1.03-1.69-2.09-1.69-2.09z" fill="#8b200b"></path><path d="M5.45 50.37s7.23-1.67 13.86-7.05c6.45-5.24 9.49-11.15 9.49-11.15s.71.52 1.21 1.02s.86 1.07.86 1.07s-1.73 5.47-10.19 11.98c-7.47 5.76-13.74 6.5-13.74 6.5s-.53-.58-.93-1.29c-.28-.53-.56-1.08-.56-1.08z" fill="#fde7c4"></path><path d="M9.33 55.2s6.81-1.54 13.36-6.93c8.22-6.76 9.88-10.81 9.88-10.81s.41 1.1.56 1.76c.19.82.31 1.8.31 1.8s-2.32 4.75-8.83 9.75c-6.46 4.97-11.88 6.58-11.88 6.58s-1.11-.5-1.85-.95c-.61-.36-1.55-1.2-1.55-1.2z" fill="#fde7c4"></path></svg>
